<svg width="32" height="32" viewBox="0 0 32 32" fill="none" xmlns="http://www.w3.org/2000/svg">
  <!-- Background circle with gradient -->
  <circle cx="16" cy="16" r="16" fill="url(#gradient)"/>
  
  <!-- Film icon -->
  <rect x="8" y="6" width="16" height="20" rx="2" fill="white" stroke="none"/>
  
  <!-- Film holes on left -->
  <rect x="9" y="8" width="2" height="2" rx="1" fill="#3B82F6"/>
  <rect x="9" y="12" width="2" height="2" rx="1" fill="#3B82F6"/>
  <rect x="9" y="16" width="2" height="2" rx="1" fill="#3B82F6"/>
  <rect x="9" y="20" width="2" height="2" rx="1" fill="#3B82F6"/>
  
  <!-- Film holes on right -->
  <rect x="21" y="8" width="2" height="2" rx="1" fill="#3B82F6"/>
  <rect x="21" y="12" width="2" height="2" rx="1" fill="#3B82F6"/>
  <rect x="21" y="16" width="2" height="2" rx="1" fill="#3B82F6"/>
  <rect x="21" y="20" width="2" height="2" rx="1" fill="#3B82F6"/>
  
  <!-- Film frames -->
  <line x1="13" y1="6" x2="13" y2="26" stroke="#3B82F6" stroke-width="0.5"/>
  <line x1="19" y1="6" x2="19" y2="26" stroke="#3B82F6" stroke-width="0.5"/>
  
  <!-- Gradient definition -->
  <defs>
    <linearGradient id="gradient" x1="0%" y1="0%" x2="100%" y2="100%">
      <stop offset="0%" style="stop-color:#1E40AF;stop-opacity:1" />
      <stop offset="50%" style="stop-color:#3B82F6;stop-opacity:1" />
      <stop offset="100%" style="stop-color:#60A5FA;stop-opacity:1" />
    </linearGradient>
  </defs>
</svg>